<mxfile host="Electron" agent="Mozilla/5.0 (X11; Linux x86_64) AppleWebKit/537.36 (KHTML, like Gecko) draw.io/24.7.17 Chrome/128.0.6613.186 Electron/32.2.1 Safari/537.36" version="24.7.17">
  <diagram name="Page-1" id="ERIMmWtwNbsZnRJRYlLk">
    <mxGraphModel dx="1168" dy="783" grid="1" gridSize="10" guides="1" tooltips="1" connect="1" arrows="1" fold="1" page="1" pageScale="1" pageWidth="850" pageHeight="1100" math="0" shadow="0">
      <root>
        <mxCell id="0" />
        <mxCell id="1" parent="0" />
        <mxCell id="dEZjPtsZi1BlvbsK9IvD-1" value="" style="rounded=1;whiteSpace=wrap;html=1;glass=0;arcSize=8;strokeOpacity=100;" parent="1" vertex="1">
          <mxGeometry x="40" y="240" width="480" height="360" as="geometry" />
        </mxCell>
        <mxCell id="dEZjPtsZi1BlvbsK9IvD-2" value="&lt;div&gt;isp_out&lt;/div&gt;macvlan" style="rounded=0;whiteSpace=wrap;html=1;" parent="1" vertex="1">
          <mxGeometry x="40" y="390" width="120" height="40" as="geometry" />
        </mxCell>
        <mxCell id="dEZjPtsZi1BlvbsK9IvD-3" style="edgeStyle=orthogonalEdgeStyle;rounded=0;orthogonalLoop=1;jettySize=auto;html=1;exitX=0.5;exitY=1;exitDx=0;exitDy=0;" parent="1" source="dEZjPtsZi1BlvbsK9IvD-1" target="dEZjPtsZi1BlvbsK9IvD-1" edge="1">
          <mxGeometry relative="1" as="geometry" />
        </mxCell>
        <mxCell id="dEZjPtsZi1BlvbsK9IvD-4" value="&lt;div&gt;ISP&lt;/div&gt;&lt;div&gt;IPv4 + IPv6 /48 via PPPoE&lt;br&gt;&lt;/div&gt;" style="ellipse;shape=cloud;whiteSpace=wrap;html=1;" parent="1" vertex="1">
          <mxGeometry x="-230" y="310" width="240" height="200" as="geometry" />
        </mxCell>
        <mxCell id="dEZjPtsZi1BlvbsK9IvD-5" value="" style="endArrow=classic;startArrow=classic;html=1;rounded=0;entryX=0;entryY=0.5;entryDx=0;entryDy=0;exitX=0.875;exitY=0.5;exitDx=0;exitDy=0;exitPerimeter=0;" parent="1" source="dEZjPtsZi1BlvbsK9IvD-4" target="dEZjPtsZi1BlvbsK9IvD-2" edge="1">
          <mxGeometry width="50" height="50" relative="1" as="geometry">
            <mxPoint x="-120" y="400" as="sourcePoint" />
            <mxPoint x="-80" y="580" as="targetPoint" />
          </mxGeometry>
        </mxCell>
        <mxCell id="3nnO_LC-6ye5INRxH1Jb-8" style="edgeStyle=orthogonalEdgeStyle;rounded=0;orthogonalLoop=1;jettySize=auto;html=1;entryX=1;entryY=0.5;entryDx=0;entryDy=0;startArrow=classic;startFill=1;" parent="1" source="dEZjPtsZi1BlvbsK9IvD-6" target="dEZjPtsZi1BlvbsK9IvD-19" edge="1">
          <mxGeometry relative="1" as="geometry" />
        </mxCell>
        <mxCell id="dEZjPtsZi1BlvbsK9IvD-6" value="&lt;div&gt;isp_in&lt;/div&gt;&lt;div&gt;macvlan / internal&lt;/div&gt;&lt;div&gt;no assigned IP&lt;br&gt;&lt;/div&gt;" style="rounded=0;whiteSpace=wrap;html=1;" parent="1" vertex="1">
          <mxGeometry x="405" y="380" width="115" height="60" as="geometry" />
        </mxCell>
        <mxCell id="3nnO_LC-6ye5INRxH1Jb-9" style="edgeStyle=orthogonalEdgeStyle;rounded=0;orthogonalLoop=1;jettySize=auto;html=1;entryX=0.5;entryY=1;entryDx=0;entryDy=0;startArrow=classic;startFill=1;" parent="1" source="dEZjPtsZi1BlvbsK9IvD-8" target="dEZjPtsZi1BlvbsK9IvD-19" edge="1">
          <mxGeometry relative="1" as="geometry" />
        </mxCell>
        <mxCell id="dEZjPtsZi1BlvbsK9IvD-8" value="VLAN 4" style="rounded=1;whiteSpace=wrap;html=1;" parent="1" vertex="1">
          <mxGeometry x="210" y="460" width="120" height="60" as="geometry" />
        </mxCell>
        <mxCell id="dEZjPtsZi1BlvbsK9IvD-9" value="PPPoE" style="rounded=1;whiteSpace=wrap;html=1;" parent="1" vertex="1">
          <mxGeometry x="60" y="460" width="120" height="60" as="geometry" />
        </mxCell>
        <mxCell id="dEZjPtsZi1BlvbsK9IvD-12" value="" style="endArrow=classic;startArrow=classic;html=1;rounded=0;exitX=1;exitY=0.5;exitDx=0;exitDy=0;entryX=0;entryY=0.5;entryDx=0;entryDy=0;edgeStyle=orthogonalEdgeStyle;" parent="1" source="dEZjPtsZi1BlvbsK9IvD-2" target="dEZjPtsZi1BlvbsK9IvD-9" edge="1">
          <mxGeometry width="50" height="50" relative="1" as="geometry">
            <mxPoint x="190" y="480" as="sourcePoint" />
            <mxPoint x="240" y="430" as="targetPoint" />
          </mxGeometry>
        </mxCell>
        <mxCell id="dEZjPtsZi1BlvbsK9IvD-14" value="" style="endArrow=classic;startArrow=classic;html=1;rounded=0;entryX=0;entryY=0.5;entryDx=0;entryDy=0;exitX=1;exitY=0.5;exitDx=0;exitDy=0;" parent="1" source="dEZjPtsZi1BlvbsK9IvD-9" target="dEZjPtsZi1BlvbsK9IvD-8" edge="1">
          <mxGeometry width="50" height="50" relative="1" as="geometry">
            <mxPoint x="170" y="530" as="sourcePoint" />
            <mxPoint x="220" y="480" as="targetPoint" />
          </mxGeometry>
        </mxCell>
        <mxCell id="dEZjPtsZi1BlvbsK9IvD-19" value="Kernel" style="shape=parallelogram;perimeter=parallelogramPerimeter;whiteSpace=wrap;html=1;fixedSize=1;" parent="1" vertex="1">
          <mxGeometry x="220" y="390" width="100" height="40" as="geometry" />
        </mxCell>
        <mxCell id="dEZjPtsZi1BlvbsK9IvD-23" style="edgeStyle=orthogonalEdgeStyle;rounded=0;orthogonalLoop=1;jettySize=auto;html=1;exitX=1;exitY=0.5;exitDx=0;exitDy=0;entryX=0;entryY=0.5;entryDx=0;entryDy=0;" parent="1" source="dEZjPtsZi1BlvbsK9IvD-22" target="3nnO_LC-6ye5INRxH1Jb-1" edge="1">
          <mxGeometry relative="1" as="geometry">
            <mxPoint x="380" y="570" as="targetPoint" />
            <Array as="points">
              <mxPoint x="360" y="560" />
              <mxPoint x="360" y="505" />
            </Array>
          </mxGeometry>
        </mxCell>
        <mxCell id="dEZjPtsZi1BlvbsK9IvD-22" value="&lt;div&gt;- Update prefix config&lt;/div&gt;&lt;div align=&quot;left&quot;&gt;- Restart&lt;br&gt;&lt;/div&gt;" style="shape=step;perimeter=stepPerimeter;whiteSpace=wrap;html=1;fixedSize=1;" parent="1" vertex="1">
          <mxGeometry x="175" y="540" width="160" height="40" as="geometry" />
        </mxCell>
        <mxCell id="dEZjPtsZi1BlvbsK9IvD-24" value="" style="endArrow=classic;html=1;rounded=0;entryX=0;entryY=0.5;entryDx=0;entryDy=0;exitX=0.25;exitY=1;exitDx=0;exitDy=0;edgeStyle=orthogonalEdgeStyle;" parent="1" source="dEZjPtsZi1BlvbsK9IvD-9" target="dEZjPtsZi1BlvbsK9IvD-22" edge="1">
          <mxGeometry relative="1" as="geometry">
            <mxPoint x="97.49000000000001" y="545" as="sourcePoint" />
            <mxPoint x="242.49" y="595" as="targetPoint" />
            <Array as="points">
              <mxPoint x="70" y="520" />
              <mxPoint x="70" y="560" />
            </Array>
          </mxGeometry>
        </mxCell>
        <mxCell id="dEZjPtsZi1BlvbsK9IvD-25" value="ip-pre-up" style="edgeLabel;resizable=0;html=1;;align=center;verticalAlign=middle;" parent="dEZjPtsZi1BlvbsK9IvD-24" connectable="0" vertex="1">
          <mxGeometry relative="1" as="geometry" />
        </mxCell>
        <mxCell id="3nnO_LC-6ye5INRxH1Jb-1" value="event_bus&lt;div&gt;internal network&lt;/div&gt;&lt;div&gt;broadcast?&lt;/div&gt;" style="rounded=0;whiteSpace=wrap;html=1;" parent="1" vertex="1">
          <mxGeometry x="400" y="480" width="120" height="50" as="geometry" />
        </mxCell>
        <mxCell id="3nnO_LC-6ye5INRxH1Jb-7" style="edgeStyle=orthogonalEdgeStyle;rounded=0;orthogonalLoop=1;jettySize=auto;html=1;entryX=0.5;entryY=0;entryDx=0;entryDy=0;" parent="1" source="3nnO_LC-6ye5INRxH1Jb-2" target="dEZjPtsZi1BlvbsK9IvD-19" edge="1">
          <mxGeometry relative="1" as="geometry">
            <mxPoint x="-110" y="200" as="targetPoint" />
          </mxGeometry>
        </mxCell>
        <mxCell id="3nnO_LC-6ye5INRxH1Jb-2" value="Routing table" style="swimlane;fontStyle=0;childLayout=stackLayout;horizontal=1;startSize=26;fillColor=none;horizontalStack=0;resizeParent=1;resizeParentMax=0;resizeLast=0;collapsible=1;marginBottom=0;html=1;" parent="1" vertex="1">
          <mxGeometry x="175" y="260" width="190" height="104" as="geometry" />
        </mxCell>
        <mxCell id="3nnO_LC-6ye5INRxH1Jb-3" value="isp_out -&amp;gt; isp_in" style="text;strokeColor=none;fillColor=none;align=left;verticalAlign=top;spacingLeft=4;spacingRight=4;overflow=hidden;rotatable=0;points=[[0,0.5],[1,0.5]];portConstraint=eastwest;whiteSpace=wrap;html=1;" parent="3nnO_LC-6ye5INRxH1Jb-2" vertex="1">
          <mxGeometry y="26" width="190" height="26" as="geometry" />
        </mxCell>
        <mxCell id="3nnO_LC-6ye5INRxH1Jb-4" value="isp_in -&amp;gt; isp_out" style="text;strokeColor=none;fillColor=none;align=left;verticalAlign=top;spacingLeft=4;spacingRight=4;overflow=hidden;rotatable=0;points=[[0,0.5],[1,0.5]];portConstraint=eastwest;whiteSpace=wrap;html=1;" parent="3nnO_LC-6ye5INRxH1Jb-2" vertex="1">
          <mxGeometry y="52" width="190" height="26" as="geometry" />
        </mxCell>
        <mxCell id="3nnO_LC-6ye5INRxH1Jb-5" value="local events -&amp;gt; event_bus" style="text;strokeColor=none;fillColor=none;align=left;verticalAlign=top;spacingLeft=4;spacingRight=4;overflow=hidden;rotatable=0;points=[[0,0.5],[1,0.5]];portConstraint=eastwest;whiteSpace=wrap;html=1;" parent="3nnO_LC-6ye5INRxH1Jb-2" vertex="1">
          <mxGeometry y="78" width="190" height="26" as="geometry" />
        </mxCell>
      </root>
    </mxGraphModel>
  </diagram>
</mxfile>
